<svg xmlns="http://www.w3.org/2000/svg" width="400" height="188"><style>.style0{fill:	black;clip-rule:	evenodd;fill-rule:	evenodd;}.style1{stroke-linejoin:	round;fill-rule:	evenodd;stroke:	#000000;stroke-linecap:	round;clip-rule:	evenodd;stroke-miterlimit:	3;stroke-width:	3;fill:	none;}</style><g><title>Layer 1</title><path d="m343.840607 136.781372l-20.94931 0l0 15.296295l19.674622 0l0 4.87709l-19.674622 0l0 17.468826l20.94931 0l0 4.932495l-26.469299 0l0 -47.473969l26.469055 0l0 4.899261l0.000244 0zm16.105438 1.241425c-1.64798 1.2 -2.5 3 -2.5 5.220688c0 1.6 0.3 3 0.9 4.056854c0.605865 1 1.6 2 3.1 2.893219c1.433624 0.9 3.6 1.8 6.6 2.893005c4.980621 1.8 8.4 3.7 10.3 5.719482c1.862122 2 2.8 4.7 2.8 7.914185c0 4.2 -1.5 7.4 -4.5 9.776337c-3.029785 2.3 -7.1 3.5 -12.3 3.513931c-5.623505 0 -10 -0.7 -13 -2.183823l0 -5.32045c1.943512 0.8 4.1 1.5 6.4 1.950836c2.290863 0.5 4.6 0.7 6.8 0.709396c3.680237 0 6.5 -0.7 8.3 -2.072769c1.862183 -1.4 2.8 -3.4 2.8 -5.852493c0 -1.6 -0.3 -3 -1 -4.023392c-0.672394 -1.1 -1.8 -2 -3.3 -2.926239c-1.559082 -0.9 -3.9 -1.9 -7.1 -3.015137c-4.419128 -1.6 -7.6 -3.5 -9.5 -5.619751c-1.906494 -2.2 -2.9 -5 -2.9 -8.479477c0 -3.7 1.4 -6.6 4.1 -8.734406s6.388062 -3.2 10.9 -3.247452c4.714569 0 9.1 0.9 13 2.604797l-1.718048 4.799271c-3.916534 -1.6 -7.7 -2.5 -11.4 -2.460724c-2.92691 -0 -5.2 0.6 -6.9 1.884109zm-55.598755 -6.140686l0 47.473969l-5.519989 0l0 -47.473969l5.519989 0zm-30.149231 -83.098858c0.591217 -0.3 1.2 -0.4 1.9 -0.443371c1.012207 0 1.8 0.3 2.4 0.919994c0.605652 0.6 0.9 1.4 0.9 2.582642c-0.014648 0.7 -0.1 1.4 -0.4 1.995167c-0.25119 0.6 -0.6 1.2 -1.1 1.706978c-0.480377 0.5 -1 0.9 -1.6 1.163853c-0.598541 0.3 -1.3 0.4 -2 0.454453c-0.982727 -0 -1.8 -0.4 -2.5 -1.064087c-0.650208 -0.7 -1 -1.5 -1 -2.549385c0.007324 -0.7 0.1 -1.3 0.4 -1.928661c0.273315 -0.6 0.7 -1.2 1.2 -1.662647c0.502777 -0.5 1.1 -0.9 1.7 -1.174934zm-43.793991 -21.004713l-0.177567 0.543131l-0.011078 0.011084c-1.07872 -0.5 -2.2 -0.8 -3.2 -1.174931c-1.078934 -0.3 -2.2 -0.6 -3.2 -0.798069c-1.086273 -0.2 -2.2 -0.3 -3.2 -0.41012c-1.049255 -0.1 -2.1 -0.1 -3.1 -0.144094c-1.470428 0 -2.8 0.1 -4.1 0.254936c-1.285782 0.1 -2.5 0.4 -3.6 0.66506c-1.07164 0.3 -2 0.6 -2.9 0.831318c-0.842407 0.3 -1.6 0.6 -2.2 0.831324l-1.452026 0.687225c-0.13324 0.1 -0.2 0.1 -0.3 0.15518s-0.092438 0.1 -0.1 0.066505c0.066513 0.1 0.6 0.5 1.6 1.152763c0.982971 0.7 2.1 1.6 3.5 2.859745c0.642868 0.6 1.2 1.3 1.8 2.050591c0.568863 0.8 1.1 1.6 1.6 2.471798c0.502579 0.9 0.9 1.8 1.2 2.881916c0.258484 1 0.4 2.1 0.4 3.292027c-0.014618 1.2 -0.1 2.4 -0.4 3.591309c-0.258484 1.1 -0.6 2.2 -1.1 3.247692c-0.502563 1 -1.1 2 -1.9 2.915169c-0.746185 0.9 -1.6 1.8 -2.6 2.571552c-0.990265 0.8 -2.1 1.5 -3.3 2.216858c-1.204651 0.7 -2.5 1.3 -3.9 1.806736s-2.90033 1 -4.5 1.396618c-1.610992 0.4 -3.3 0.7 -5.1 0.9865c0.87941 0.9 1.7 1.7 2.3 2.438541c0.672379 0.7 1.2 1.4 1.7 1.984093c0.916229 1.2 1.5 2.4 1.9 3.502632c0.147858 0.6 0.3 1.2 0.3 1.961914c0.066498 0.7 0.1 1.5 0.1 2.37204l0 8.6679c0.02948 1.3 0.2 2.4 0.6 3.413956c0.384201 1 0.9 1.9 1.7 2.582642c0.731552 0.7 1.6 1.3 2.5 1.662643c0.938385 0.4 2 0.6 3.1 0.598557c1.256287 -0.1 2.4 -0.3 3.5 -0.720482c1.041931 -0.4 2 -1.1 2.8 -1.86216c0.820023 -0.8 1.5 -1.7 1.9 -2.715652c0.436035 -1 0.7 -2.1 0.7 -3.23661c-0.007309 -0.5 -0.1 -1.1 -0.2 -1.718063c-0.132996 -0.7 -0.3 -1.4 -0.6 -2.150352c-0.280869 -0.8 -0.6 -1.6 -1.1 -2.527214c-0.443375 -0.9 -1 -1.9 -1.6 -2.959503l0.731766 -0.554214c0.022171 0 0.1 0.1 0.2 0.177353c0.081345 0.1 0.2 0.3 0.3 0.487709c0.13324 0.2 0.3 0.5 0.5 0.809158c0.303055 0.5 0.6 1 0.9 1.629379c0.302811 0.6 0.6 1.3 0.9 2.050591c0.302811 0.7 0.5 1.5 0.7 2.31662c0.162506 0.8 0.3 1.6 0.3 2.438538c-0.014648 0.7 -0.1 1.4 -0.2 2.050591c-0.14032 0.7 -0.3 1.3 -0.6 1.851074c-0.531815 1.2 -1.3 2.2 -2.4 3.114693c-0.532059 0.5 -1.1 0.8 -1.8 1.19709c-0.635345 0.3 -1.3 0.6 -2.1 0.864586s-1.514786 0.4 -2.3 0.543129c-0.842636 0.1 -1.7 0.2 -2.7 0.210602c-1.307938 -0 -2.6 -0.2 -3.7 -0.410118c-1.197083 -0.3 -2.3 -0.7 -3.4 -1.152763c-1.093597 -0.5 -2.1 -1.1 -2.9 -1.851082c-0.871918 -0.7 -1.6 -1.5 -2.3 -2.394211c-0.650208 -0.9 -1.1 -1.8 -1.5 -2.815399c-0.33252 -1 -0.5 -2.1 -0.5 -3.192268c0.007309 -1.2 0 -2.4 0.1 -3.546974c0.059189 -1.1 0.1 -2.2 0.3 -3.280952c0.103302 -1 0.2 -2 0.2 -2.970581c0.059174 -1 0.1 -1.9 0.1 -2.748901c-0.007324 -1.2 -0.3 -2.4 -1 -3.391785c-0.68721 -1.1 -1.7 -2.1 -3.1 -3.003849c-0.022156 0 -0.1 0.2 -0.2 0.432293l-5.143097 11.494392c-0.155182 0.4 -0.3 0.7 -0.4 0.986504c-0.280869 0.6 -0.6 1.3 -1 1.895409c-0.362 0.6 -0.8 1.2 -1.2 1.817825c-0.894058 1.2 -2 2.3 -3.2 3.391785c-1.226807 1.1 -2.6 2.1 -4 3.026009c-1.46312 0.9 -3 1.8 -4.7 2.649147c-1.692139 0.8 -3.4 1.5 -5.3 2.128189c-1.817825 0.6 -3.7 1.2 -5.6 1.607208c-1.914032 0.4 -3.8 0.8 -5.8 0.997597c-1.935989 0.2 -3.9 0.3 -5.8 0.332527c-1.35228 -0 -2.7 -0.1 -4 -0.221687c-1.300629 -0.1 -2.6 -0.4 -3.8 -0.631805c-1.211929 -0.3 -2.4 -0.6 -3.5 -1.030846c-1.152756 -0.4 -2.3 -0.9 -3.3 -1.429871c-1.078697 -0.6 -2.1 -1.2 -3.1 -1.839989c-0.960579 -0.7 -1.9 -1.4 -2.7 -2.16143c-0.842415 -0.8 -1.6 -1.6 -2.4 -2.516136c-0.738876 -0.9 -1.4 -1.9 -2 -2.848663c-0.628021 -1 -1.2 -2.1 -1.6 -3.170097c-0.472862 -1.1 -0.9 -2.3 -1.2 -3.469383c-0.317665 -1.2 -0.6 -2.4 -0.7 -3.746483c-0.170029 -1.3 -0.3 -2.7 -0.3 -4.056847c0 -1.1 0.1 -2.3 0.2 -3.369621c0.118149 -1.1 0.3 -2.2 0.5 -3.292038c0.228996 -1.1 0.5 -2.2 0.9 -3.214439c0.339844 -1.1 0.7 -2.1 1.2 -3.125767c0.443375 -1 0.9 -2 1.5 -3.003838c0.524727 -1 1.1 -1.9 1.7 -2.837578c0.605865 -0.9 1.3 -1.8 2 -2.660229c0.694534 -0.9 1.4 -1.7 2.2 -2.482876c0.775894 -0.8 1.6 -1.6 2.4 -2.272278c0.835098 -0.7 1.7 -1.4 2.6 -2.017342s1.799194 -1.2 2.7 -1.762402c0.945938 -0.5 1.9 -1 2.9 -1.507462c0.99028 -0.5 2 -0.9 3 -1.219269c1.027069 -0.3 2.1 -0.6 3.1 -0.864574c1.041901 -0.2 2.1 -0.4 3.2 -0.543133c1.078934 -0.1 2.2 -0.2 3.3 -0.188427c0.85704 0 1.7 0.1 2.5 0.144093c0.820236 0.1 1.6 0.2 2.4 0.321445c0.783218 0.1 1.5 0.2 2.1 0.376865c0.628036 0.1 1.2 0.3 1.7 0.410118l1.440948 0.410118l0.077606 0.033253c0 -0 0 -0 0 -0.077591c0.037018 -0 0.1 -0.1 0.2 -0.221684c0.088699 -0.1 0.2 -0.3 0.4 -0.454456s0.413879 -0.4 0.7 -0.753735c0.458008 -0.5 1.1 -1 1.8 -1.518543c0.731552 -0.5 1.6 -1.1 2.6 -1.751318c0.990051 -0.6 2.1 -1.2 3.5 -1.751314c1.307938 -0.5 2.8 -1.1 4.4 -1.529633c1.611008 -0.5 3.4 -0.8 5.4 -1.064091c1.965683 -0.3 4.1 -0.4 6.4 -0.410118c1.958145 0 3.8 0.1 5.5 0.332527c1.677246 0.2 3.2 0.5 4.6 0.820238c1.359604 0.4 2.6 0.7 3.6 1.108429c1.049255 0.4 1.9 0.7 2.7 1.108429c0.443375 0.2 0.8 0.4 1.1 0.543129c0.273315 0.1 0.5 0.3 0.6 0.343611c0.140549 0.1 0.2 0.1 0.3 0.177351c0.059174 0 0.1 0.1 0.1 0.077589c0.066498 -0 0.3 -0.1 0.6 -0.243853c0.347168 -0.1 0.8 -0.4 1.4 -0.620722c0.64267 -0.3 1.4 -0.6 2.4 -0.864571c0.930862 -0.3 2 -0.6 3.2 -0.842409c1.18956 -0.3 2.5 -0.5 4 -0.653971c1.470444 -0.2 3.1 -0.2 4.8 -0.266022c0.827576 -0 1.6 0 2.4 0.05542c0.738907 0 1.4 0.1 2.1 0.166264c0.642883 0.1 1.3 0.2 2 0.354698c0.650208 0.1 1.3 0.3 2 0.52096c0.65773 0.2 1.4 0.5 2.1 0.764816c0.761261 0.3 1.6 0.6 2.4 0.997585zm-2.039505 88.519068c-0.037033 -0.2 -0.1 -0.4 -0.1 -0.576385c-0.02948 -0.2 -0 -0.4 -0 -0.609634c0.029709 -1.1 0.3 -2.2 0.8 -3.369614c0.258713 -0.6 0.6 -1.2 1 -1.751328c0.376862 -0.6 0.8 -1.2 1.3 -1.795647c0.487701 -0.6 1 -1.2 1.6 -1.784569c0.576355 -0.6 1.2 -1.2 1.9 -1.706978c0.657761 -0.6 1.4 -1.1 2.1 -1.640472c0.746445 -0.5 1.5 -1 2.3 -1.551804c0.805618 -0.5 1.6 -1 2.5 -1.4077c0.857025 -0.4 1.7 -0.8 2.6 -1.197105c0.886749 -0.4 1.8 -0.7 2.7 -1.008667c0.938385 -0.3 1.9 -0.6 2.9 -0.809158c0.775909 -2.3 1.6 -4.4 2.3 -6.406494c0.7686 -2 1.5 -3.9 2.3 -5.630806c0.613632 -1.5 1.2 -2.9 1.9 -4.278534c0.628021 -1.4 1.3 -2.7 1.9 -3.96817c-0.487488 0.5 -1 1.1 -1.5 1.59613c-0.487701 0.5 -1 1 -1.5 1.562889c-0.480408 0.5 -1 1 -1.4 1.496376c-1.595917 1.6 -3.1 3.1 -4.6 4.422623c-1.448242 1.3 -2.8 2.5 -4.1 3.425049c-0.657745 0.5 -1.3 0.9 -1.9 1.274696c-0.591232 0.4 -1.1 0.7 -1.7 0.919991c-1.056747 0.5 -2 0.8 -2.8 0.798065c-1.012436 -0 -1.9 -0.2 -2.7 -0.41011c-0.761292 -0.3 -1.4 -0.7 -1.9 -1.152771c-0.524506 -0.5 -1 -1.1 -1.4 -1.762398c-0.435822 -0.7 -0.8 -1.4 -1.2 -2.239029c-0.812912 1.1 -1.6 2 -2.4 2.72673c-0.775879 0.7 -1.5 1.3 -2.3 1.684814c-0.716705 0.4 -1.4 0.7 -2.1 0.864563c-0.694534 0.2 -1.4 0.3 -2 0.2882l-0.154953 0c-0.938385 -0 -1.8 -0.2 -2.6 -0.587463c-0.768341 -0.4 -1.5 -1 -2.1 -1.762398c-0.58371 -0.8 -1 -1.8 -1.3 -2.93734c-0.155167 -0.6 -0.3 -1.2 -0.4 -1.895409c-0.088684 -0.7 -0.1 -1.4 -0.1 -2.194695c0.007324 -1.1 0.1 -2.2 0.4 -3.303116c0.258499 -1.1 0.6 -2.3 1.2 -3.469376c0.51741 -1.2 1.1 -2.3 1.9 -3.402878c0.731567 -1.1 1.6 -2.2 2.5 -3.192268c0.945953 -1 2 -2 3.1 -2.804321c1.115952 -0.8 2.3 -1.6 3.6 -2.227943c0.642899 -0.3 1.3 -0.6 2 -0.853485s1.37822 -0.4 2.1 -0.609642c0.701859 -0.2 1.4 -0.3 2.2 -0.376865c0.738892 -0.1 1.5 -0.1 2.3 -0.133011l0.343628 -0.011082c0.842392 0 1.6 0.1 2.3 0.376865c0.768585 0.3 1.5 0.9 2.2 1.873241c0.014832 -0 0.1 -0.1 0.2 -0.243858c0.096237 -0.1 0.2 -0.3 0.4 -0.476616c0.428726 -0.4 0.9 -0.6 1.4 -0.698311c0.295517 0 0.6 0 0.9 0.088676c0.325195 0 0.7 0.1 1 0.188431c0.702103 0.2 1.4 0.3 2 0.277107c0.243866 -0 0.5 -0.2 0.9 -0.554214c0.177322 -0.2 0.4 -0.4 0.6 -0.5653c0.184677 -0.2 0.4 -0.4 0.6 -0.587467c0.391693 -0.4 0.8 -0.7 1.1 -0.820236l0.011322 0.011082l-12.358978 23.232658c-0.642914 1.2 -1.1 2.1 -1.3 2.682396c-0.214355 0.6 -0.3 1.2 -0.3 1.640472c0 0.5 0.2 0.9 0.5 1.29686c0.325226 0.4 0.8 0.6 1.6 0.598549c0.458023 -0 1 -0.2 1.7 -0.509872c0.672379 -0.3 1.4 -0.8 2.3 -1.429878c0.872116 -0.6 1.8 -1.3 2.8 -2.172508c0.997589 -0.8 2.1 -1.8 3.2 -2.804337c1.115753 -1 2.3 -2.1 3.4 -3.258774c1.145493 -1.1 2.3 -2.3 3.5 -3.569138c0.465729 -0.5 0.9 -1 1.4 -1.507462c0.458191 -0.5 0.9 -1 1.4 -1.507462s0.897797 -1 1.3 -1.496384c0.362244 -0.7 0.7 -1.3 1.1 -2.006248c0.376831 -0.7 0.8 -1.3 1.1 -2.006256c0.376648 -0.7 0.8 -1.3 1.2 -1.984085c0.517395 -0.9 1.1 -1.7 1.6 -2.360947c0.554199 -0.6 1.2 -0.9 1.9 -0.96434c0.524506 0 1 0.2 1.4 0.421204c0.420959 0.2 0.9 0.4 1.6 0.410118c0.339844 -0 0.7 -0.3 1.1 -0.642891l1.241425 -1.252522c0.436066 -0.4 0.9 -0.7 1.3 -0.820236l0.011047 0.011089l-17.147339 32.753815c0.694763 -0.5 1.5 -1.2 2.3 -1.939735c0.857269 -0.8 1.8 -1.6 2.8 -2.560478c1.041931 -1 2.1 -2 3.2 -3.04818c1.093811 -1.1 2.2 -2.2 3.3 -3.314201l11.250549 -11.627403c0.628235 -0.7 1.1 -1.2 1.4 -1.507469c0.317902 -0.3 0.5 -0.5 0.5 -0.5653l0.011322 0l0.786957 0.687225l0 0.011093c-1.4263 1.6 -2.9 3.2 -4.4 4.777321c-1.514771 1.6 -3.1 3.3 -4.6 4.910339c-1.56662 1.6 -3.1 3.2 -4.6 4.744072c-1.529633 1.5 -3 3 -4.5 4.389374c-1.485321 1.4 -2.9 2.6 -4.2 3.679985c-1.315247 1.1 -2.5 2 -3.6 2.771065c-0.369324 0.7 -0.7 1.5 -1.1 2.383125c-0.391708 0.9 -0.8 1.9 -1.2 2.959496c-0.258698 0.7 -0.5 1.5 -0.8 2.205772c-0.280884 0.7 -0.6 1.5 -0.9 2.294678c-0.295502 0.8 -0.6 1.6 -0.9 2.38311c-0.177353 0.4 -0.4 0.9 -0.5 1.274696c-0.183777 0.4 -1.2 1.1 -3 2.045052c-0.009323 0 -0 0 -0 0.016624l0.199524 -0.066505l2.249908 -0.731789c-0.36203 0.7 -0.7 1.5 -1.1 2.20578s-0.798279 1.4 -1.2 2.12841c-0.679901 1.1 -1.4 2 -2.2 2.926018c-0.805603 0.9 -1.7 1.6 -2.6 2.327698c-0.938385 0.7 -2 1.2 -3.1 1.540718c-0.55423 0.2 -1.1 0.3 -1.7 0.410347c-0.605881 0.1 -1.2 0.1 -1.9 0.16626c-1.233902 -0 -2.4 -0.2 -3.4 -0.521187c-1.004898 -0.3 -1.9 -0.8 -2.7 -1.452042c-0.628021 -0.5 -1.1 -1.1 -1.5 -1.706978c-0.384369 -0.6 -0.6 -1.3 -0.8 -2.061676zm1.330124 -0.243858c0.177322 0.5 0.5 0.9 0.9 1.274696c0.731567 0.6 1.7 1 2.8 1.019753c0.790756 -0 1.6 -0.2 2.4 -0.532043c0.775909 -0.3 1.5 -0.8 2.3 -1.363144c1.064316 -0.9 2.1 -1.9 3.1 -3.081436c0 -0 0 -0 0 -0.011086c0.068283 -0.1 0.1 -0.2 0.2 -0.254936c2.05748 -0.6 4.3 -1.3 6.7 -1.989624c-2.435211 0.7 -4.7 1.4 -6.7 1.989624c0.11618 -0.1 0.2 -0.3 0.3 -0.443367c0.184647 -0.2 0.4 -0.5 0.6 -0.731567c0.65773 -0.9 1.3 -1.8 1.9 -2.737816c0.58371 -0.9 1.1 -1.9 1.6 -2.793465c0.502792 -0.9 1 -1.8 1.4 -2.615891c0.406357 -0.8 0.8 -1.6 1.1 -2.227936l0.687439 -1.662636c0.177353 -0.4 0.3 -0.7 0.4 -0.908913c-1.101135 0.1 -2.2 0.3 -3.3 0.67614c-1.137909 0.3 -2.3 0.8 -3.4 1.35228c-1.152557 0.6 -2.3 1.2 -3.3 1.895409c-1.071365 0.7 -2.1 1.4 -3.1 2.261192c-0.982971 0.8 -1.9 1.6 -2.7 2.471802c-0.805588 0.8 -1.5 1.7 -2.1 2.549377c-0.598557 0.8 -1 1.7 -1.4 2.449638c-0.310349 0.8 -0.5 1.5 -0.5 2.194679c0.000443 0.4 0.1 0.8 0.2 1.219269zm-0.221695 -45.057594c-0.724258 1 -1.4 2 -2 3.014923c-0.642868 1 -1.2 2.1 -1.8 3.159019c-0.568848 1.1 -1.1 2.1 -1.5 3.159019c-0.443375 1 -0.8 2 -1.1 2.926247c-0.325211 0.9 -0.6 1.8 -0.7 2.5383c-0.170029 0.7 -0.3 1.4 -0.3 1.928665c0 1 0.1 1.8 0.4 2.305542c0.243881 0.5 0.7 0.8 1.5 0.831314c1.167618 -0 2.2 -0.4 3.2 -1.064095c0.909134 -0.7 1.7 -1.5 2.4 -2.438538c0.731796 -1 1.3 -1.9 1.8 -2.72673c0.443375 -0.8 0.9 -1.5 1.4 -2.327705c0.465759 -0.8 0.9 -1.6 1.4 -2.449631c0.473068 -0.8 1 -1.7 1.5 -2.549377c0.473053 -0.9 0.9 -1.7 1.4 -2.493965c0.436066 -0.8 0.9 -1.6 1.3 -2.305534c0.391724 -0.7 0.8 -1.5 1.1 -2.117088c0.517197 -1 0.9 -1.8 1.2 -2.493965c0.273346 -0.7 0.4 -1.1 0.5 -1.385536c-0.007324 -0.6 -0.2 -1.1 -0.5 -1.507469c-0.339844 -0.5 -0.8 -0.8 -1.5 -0.78698c-0.827515 0 -1.7 0.2 -2.5 0.532043c-0.827545 0.3 -1.6 0.8 -2.4 1.407707c-0.820236 0.6 -1.6 1.3 -2.4 2.16143c-0.768356 0.8 -1.5 1.7 -2.2 2.682404zm-34.09523 -44.004597c-0.931107 -0.4 -2 -0.8 -3.3 -1.14168c-1.241425 -0.4 -2.7 -0.7 -4.2 -0.853493c-1.588821 -0.2 -3.3 -0.3 -5.3 -0.343611c-2.187393 0 -4.2 0.2 -6.1 0.399033c-1.884308 0.2 -3.6 0.6 -5.1 1.030838c-1.544495 0.5 -2.9 0.9 -4.2 1.485296c-1.263611 0.5 -2.4 1.1 -3.3 1.695894c-0.982742 0.6 -1.8 1.1 -2.5 1.662642c-0.724258 0.5 -1.3 1 -1.7 1.474211c-0.280869 0.3 -0.5 0.5 -0.7 0.665058c-0.177338 0.2 -0.3 0.3 -0.4 0.432285c-0.096207 0.1 -0.2 0.2 -0.2 0.232769c-0.037018 0 -0.1 0.1 -0 0.088673c0.68721 0.4 1.4 0.8 2.1 1.274693c0.679672 0.4 1.4 0.9 2 1.352283c0.68721 0.5 1.4 1 2 1.540714c0.672348 0.6 1.3 1.2 2 1.873241c0.628036 0.7 1.2 1.4 1.8 2.316616c0.591232 0.9 1.2 1.8 1.7 2.892998c0.635559 1.3 1.2 2.5 1.6 3.65781c0.406357 1.2 0.7 2.2 0.9 3.258781c0.155167 1 0.3 2 0.3 2.782154c0.044342 0.8 0 1.5 -0 2.150349l-0.188431 1.684814l-0.033249 0.133011c0.702072 -0.6 1.4 -1.3 2.2 -2.327694c0.731567 -1 1.2 -2 1.4 -2.948425l0.011093 0l0.46553 1.341202c-0.229233 0.8 -0.7 1.8 -1.5 2.815407c-0.805618 1 -1.7 1.8 -2.7 2.449627c-0.258698 1.2 -0.6 2.4 -0.9 3.591301c-0.354706 1.2 -0.8 2.3 -1.2 3.380707c-0.450699 1.1 -0.9 2.1 -1.5 3.147934c-0.546677 1 -1.1 2 -1.8 2.926254c-0.635574 0.9 -1.3 1.8 -2 2.638062c-0.716721 0.8 -1.5 1.6 -2.3 2.338783c-0.790527 0.7 -1.6 1.4 -2.5 2.017334s-1.762405 1.2 -2.7 1.729149c-0.931091 0.5 -1.9 1 -2.9 1.374451c-0.982727 0.4 -2 0.7 -3 0.986511c-1.019745 0.3 -2.1 0.5 -3.1 0.598541c-1.071396 0.1 -2.2 0.2 -3.3 0.221687l-0.288208 0c-1.640472 0 -3.2 -0.1 -4.8 -0.376862c-1.536942 -0.3 -3 -0.6 -4.4 -1.108429c-0.716721 -0.3 -1.4 -0.6 -2.1 -0.897835c-0.687225 -0.4 -1.4 -0.7 -2 -1.18602c-0.650421 -0.4 -1.3 -0.9 -1.9 -1.474205c-0.620728 -0.5 -1.2 -1.1 -1.8 -1.740234c-0.561539 -0.6 -1.1 -1.2 -1.6 -1.950829c-0.524734 -0.7 -1 -1.5 -1.5 -2.283356c-0.487701 -0.8 -1 -1.7 -1.4 -2.615898c-0.457993 -0.9 -0.9 -1.9 -1.3 -2.937332l0 -0.011086c0.110832 0 0.3 0.1 0.4 0.099754c0.177345 0 0.4 0 0.6 0.05542c0.665047 1.6 1.4 3 2.2 4.389381c0.805389 1.4 1.7 2.6 2.6 3.768661c0.945953 1.2 2 2.2 3.2 3.103592c1.174942 0.9 2.5 1.7 3.9 2.338783c1.389328 0.6 2.9 1.1 4.6 1.463127c1.684799 0.3 3.5 0.5 5.5 0.520958c2.157654 -0 4.2 -0.3 6.2 -0.831314c1.965683 -0.5 3.8 -1.3 5.6 -2.2612c1.744003 -1 3.4 -2.2 4.9 -3.580223c1.485306 -1.4 2.8 -3 4 -4.721901c1.204422 -1.8 2.2 -3.7 3.1 -5.741661c0.87944 -2.1 1.6 -4.2 2.1 -6.550808c-0.118164 0.1 -0.4 0.2 -0.7 0.277107c-0.376877 0.1 -0.9 0.3 -1.5 0.454456c-0.65773 0.2 -1.4 0.3 -2.2 0.465538c-0.790512 0.1 -1.6 0.2 -2.5 0.221687l-0.60965 0.011082c-0.820221 0 -1.6 -0.1 -2.4 -0.254936c-0.812912 -0.2 -1.6 -0.4 -2.4 -0.764812c-0.90892 -0.4 -1.7 -1 -2.5 -1.729153c-0.753723 -0.8 -1.4 -1.7 -2 -2.793236c-0.30304 -0.6 -0.6 -1.2 -0.8 -1.851074c-0.228989 -0.7 -0.4 -1.4 -0.6 -2.216858c-0.162506 -0.8 -0.3 -1.7 -0.4 -2.582638c-0.088684 -0.9 -0.1 -1.9 -0.2 -2.948421c0.029709 -1 0.1 -2 0.3 -2.948414c0.14032 -0.9 0.3 -1.8 0.6 -2.6824c0.273331 -0.9 0.6 -1.7 0.9 -2.383121c0.310349 -0.7 0.6 -1.4 1 -1.995167c0.665054 -1.2 1.2 -2 1.7 -2.493965c-0.037018 -0 -0.2 -0.1 -0.4 -0.133011c-0.25116 -0.1 -0.6 -0.2 -1.1 -0.31036c-0.480423 -0.2 -1 -0.3 -1.6 -0.465542c-0.591248 -0.2 -1.2 -0.3 -1.9 -0.465538c-0.716721 -0.2 -1.4 -0.3 -2.2 -0.354698c-0.738876 -0.1 -1.5 -0.1 -2.2 -0.144093c-2.113541 0 -4.2 0.3 -6.2 0.742645c-2.039505 0.5 -4 1.2 -6 2.061676c-1.935959 0.9 -3.8 2 -5.5 3.269863c-1.736473 1.3 -3.4 2.7 -4.9 4.256363c-1.522308 1.6 -2.9 3.3 -4.1 5.054432c-1.211716 1.8 -2.3 3.7 -3.1 5.686241c-0.879425 2 -1.5 4.1 -2 6.173943c-0.450684 2.1 -0.7 4.3 -0.7 6.45105c0.014618 2.5 0.3 4.8 0.8 6.983093c0.532059 2.2 1.3 4.3 2.4 6.207199c1.041908 1.9 2.3 3.6 3.9 5.165276c1.551788 1.5 3.4 2.9 5.4 4.012512c2.046814 1.1 4.3 2 6.9 2.538292c2.549393 0.6 5.3 0.9 8.3 0.920006c2.926254 -0 5.7 -0.4 8.3 -1.141685c2.601028 -0.7 5 -1.8 7.3 -3.29203c2.2612 -1.5 4.3 -3.3 6.2 -5.431305c1.839996 -2.2 3.5 -4.7 4.8 -7.526215c0.199509 -0.5 0.4 -1 0.7 -1.562889c0.258698 -0.6 0.5 -1.3 0.9 -1.984085l8.723343 -20.250984c0.827545 -1.8 1.7 -3.5 2.7 -5.043343c0.982971 -1.6 2 -3 3.2 -4.356125c1.115738 -1.4 2.2 -2.6 3.4 -3.713234c1.115753 -1.1 2.2 -2.1 3.3 -3.026012c1.078964 -0.9 2.1 -1.7 3 -2.327698c0.908905 -0.7 1.7 -1.2 2.4 -1.629389l1.208191 -0.73156c0.325195 -0.2 0.6 -0.3 0.8 -0.443373c0.177353 -0.1 0.3 -0.2 0.3 -0.166264c-0.007324 -0 -0 -0 -0 -0.044338l-0.110855 -0.099758l-1.673721 -1.041924c-0.620728 -0.4 -1.4 -0.7 -2.3 -1.119511zm6.938736 4.256363c-0.775894 -0.7 -1.2 -1.1 -1.3 -1.108427l-0.011093 0c-0.014618 -0 -0 0 -0.1 0.044338c-0.066742 0 -0.2 0.1 -0.3 0.199516c-0.133011 0.1 -0.3 0.2 -0.5 0.387949l-0.886749 0.653973c-0.58371 0.4 -1.2 1 -2 1.828907c-0.738861 0.8 -1.5 1.7 -2.4 2.881912c-0.894287 1.1 -1.8 2.5 -2.7 4.101181c-0.901596 1.6 -1.8 3.4 -2.7 5.486721c-0.369553 0.9 -0.7 1.8 -1.1 2.771069s-0.642914 1.9 -0.9 2.892998c-0.295502 1 -0.6 1.9 -0.8 2.815411s-0.46553 1.8 -0.7 2.626972c-0.147873 0.6 -0.3 1.1 -0.4 1.573971c-0.118378 0.5 -0.2 0.9 -0.3 1.374447c-0.095978 0.4 -0.2 0.8 -0.3 1.152767c0.391693 0 0.8 0.1 1.2 0.099758c0.384201 0 0.8 0 1.2 0.033257c1.359619 0 2.7 -0.2 4 -0.454456c1.307953 -0.3 2.6 -0.7 3.8 -1.341198c1.588806 -0.8 3 -1.7 4.3 -2.826492c1.300613 -1.1 2.5 -2.4 3.5 -3.857334c1.004898 -1.5 1.8 -3 2.3 -4.688648c0.524521 -1.7 0.8 -3.5 0.8 -5.320457c-0.036789 -1.6 -0.2 -3 -0.4 -4.234192c-0.221695 -1.2 -0.5 -2.3 -0.9 -3.225525c-0.399033 -0.9 -0.8 -1.7 -1.2 -2.349869c-0.414093 -0.7 -0.8 -1.2 -1.2 -1.518547zm-44.924591 3.635643c-0.546677 0.8 -1.1 1.6 -1.5 2.493965c-0.487717 0.9 -0.9 1.7 -1.4 2.671314c-0.399033 0.9 -0.7 2 -0.9 3.09251c-0.206833 1.1 -0.3 2.3 -0.3 3.635643c0.014862 2 0.2 3.7 0.5 5.198528c0.288177 1.5 0.7 2.8 1.3 3.790821c0.54689 1 1.2 1.9 1.9 2.582642c0.694534 0.7 1.5 1.2 2.3 1.562881c0.738876 0.3 1.5 0.5 2.3 0.698315c0.761047 0.2 1.5 0.2 2.3 0.243855l0.565292 -0.011086c0.857269 -0.1 1.7 -0.1 2.4 -0.266022c0.74617 -0.1 1.4 -0.3 2.1 -0.476627c0.613403 -0.2 1.1 -0.4 1.5 -0.498791c0.376862 -0.1 0.6 -0.2 0.8 -0.288189l0.022171 -0.044338l0.033264 -0.110844l0.310349 -1.684811c0.088669 -0.6 0.1 -1.3 0.1 -2.161438c-0.014847 -0.8 -0.1 -1.8 -0.2 -2.771069c-0.147858 -1 -0.4 -2.2 -0.8 -3.336369c-0.391724 -1.2 -0.9 -2.4 -1.5 -3.757572c-0.605865 -1.2 -1.3 -2.2 -2.1 -3.225525c-0.775909 -1 -1.6 -1.9 -2.6 -2.771069c-0.923767 -0.9 -2 -1.7 -3.1 -2.42746c-1.152771 -0.8 -2.4 -1.5 -3.8 -2.139267zm32.621048 103.139233c-1.648026 1.2 -2.5 3 -2.5 5.220688c0 1.6 0.3 3 0.9 4.056854c0.605865 1 1.6 2 3.1 2.893219c1.43364 0.9 3.6 1.8 6.6 2.893005c4.980606 1.8 8.4 3.7 10.3 5.719482c1.862137 2 2.8 4.7 2.8 7.914185c0 4.2 -1.5 7.4 -4.5 9.776337c-3.029556 2.3 -7.1 3.5 -12.3 3.513931c-5.623505 0 -9.9 -0.7 -13 -2.183823l0 -5.32045c1.943512 0.8 4.1 1.5 6.4 1.950836c2.29068 0.5 4.6 0.7 6.8 0.709396c3.679993 0 6.5 -0.7 8.3 -2.072769c1.862167 -1.4 2.8 -3.4 2.8 -5.852493c0 -1.6 -0.3 -3 -1 -4.023392c-0.672379 -1.1 -1.8 -2 -3.3 -2.926239c-1.559113 -0.9 -3.9 -1.9 -7.1 -3.015137c-4.418869 -1.6 -7.6 -3.5 -9.5 -5.619751c-1.906494 -2.2 -2.9 -5 -2.9 -8.479477c0 -3.7 1.4 -6.6 4.1 -8.734406c2.748917 -2.2 6.4 -3.2 10.9 -3.247452c4.714584 0 9.1 0.9 13 2.604797l-1.718048 4.799271c-3.916519 -1.6 -7.7 -2.5 -11.4 -2.460724c-2.926468 -0 -5.2 0.6 -6.9 1.884109zm24.972855 -6.140686l35.591858 0l0 4.899475l-15.04158 0l0 42.574493l-5.519958 0l0 -42.574707l-15.030319 0l0 -4.899261zm-43.128906 0l0 30.714539c0 5.4 -1.6 9.7 -4.9 12.769318c-3.273636 3.1 -7.8 4.6 -13.5 4.644318s-10.127258 -1.6 -13.2 -4.677795c-3.14061 -3.1 -4.7 -7.4 -4.7 -12.857758l0 -30.592621l5.519974 0l0 30.98056c0 4 1.1 7 3.2 9.12236s5.346161 3.2 9.5 3.181183c4.004959 0 7.1 -1.1 9.3 -3.181183c2.165207 -2.1 3.2 -5.2 3.2 -9.188858l0 -30.914063l5.519989 0zm91.378784 4.832733l0 18.156067l7.570587 0c3.894104 0 6.8 -0.8 8.6 -2.305542c1.817841 -1.6 2.7 -3.9 2.7 -6.983093c0 -3.1 -0.9 -5.4 -2.8 -6.783569c-1.862152 -1.4 -4.8 -2.1 -8.9 -2.083862l-7.171326 0zm20.428345 -1.485275c2.771088 2.2 4.2 5.6 4.2 10.064301c0 6.3 -3.2 10.5 -9.6 12.724762l12.891022 21.33725l-6.517548 0l-11.50528 -19.741104l-9.898285 0l0 19.741104l-5.519958 0l0 -47.47377l13.024017 0c5.823029 0 10.1 1.1 12.9 3.347458zm-209.182541 -3.347458l0 47.473969l-6.306961 0l-25.948296 -39.847977l-0.25494 0c0.347382 4.7 0.5 9 0.5 12.857758l0 26.990219l-5.09877 0l0 -47.473969l6.22937 0l25.881783 39.681717l0.266029 0c-0.044334 -0.6 -0.1 -2.5 -0.3 -5.61972c-0.147858 -3.2 -0.2 -5.5 -0.2 -6.816833l0 -27.245163l5.165276 0zm-50.112034 0l0 47.473969l-5.519974 0l0 -47.473969l5.519974 0zm68.678204 4.766235l0 37.93042l6.717064 0c6.584068 0 11.5 -1.6 14.8 -4.832977c3.310646 -3.3 5 -8 5 -14.387177c0 -6.2 -1.5 -10.9 -4.6 -13.999435c-3.118248 -3.1 -7.7 -4.7 -13.9 -4.710815l-8.025017 0l0 -0.000015zm9.022614 -4.766235c7.382111 0 13.1 2 17.2 6.140686c4.093864 4.1 6.1 9.8 6.1 17.136307c0 7.8 -2.1 13.8 -6.4 17.989792c-4.27121 4.1 -10.4 6.2 -18.4 6.207184l-13.14595 0l0 -47.473969l14.54258 0z" class="style0"/><path d="m249.786148 111.1157c0.026596 -0 0.1 -0 0.1 -0.022163c6.994186 -2.5 12.9 -5.2 17.8 -7.86451c18.68811 -10.4 28 -22.9 28 -37.631142c0 -14.7 -9.3 -27.3 -28 -37.642216c-18.68811 -10.4 -41.2 -15.6 -67.6 -15.606668c-26.424927 0 -49 5.2 -67.6 15.606668c-18.702957 10.4 -28.1 22.9 -28.1 37.642216c0 14.7 9.4 27.2 28.1 37.631142c18.673248 10.4 41.2 15.6 67.6 15.584496c10.626038 0 20.6 -0.8 30 -2.516136m1.330124 -0.243637c2.775482 -0.5 6.7 -1.5 11.7 -2.948639c2.059479 -0.6 4.3 -1.3 6.7 -1.989632m0.084259 -0.021942c0.028824 -0 0.1 -0 0.1 -0.02771m-0.199524 0.066505c0.037689 -0 0.1 -0 0.1 -0" class="style1"/></g></svg>